<?xml version="1.0" encoding="utf-8"?>
<svg width="512" height="512" viewBox="0 0 512 512" fill="none" xmlns="http://www.w3.org/2000/svg">
  <defs>
    <clipPath id="clip_path_1">
      <rect width="512" height="512" rx="100" />
    </clipPath>
    <filter color-interpolation-filters="sRGB" x="-373" y="-438" width="375" height="440" id="filter_2">
      <feFlood flood-opacity="0" result="BackgroundImageFix_1" />
      <feColorMatrix type="matrix" values="0 0 0 0 0 0 0 0 0 0 0 0 0 0 0 0 0 0 1 0" in="SourceAlpha" />
      <feOffset dx="0" dy="0" />
      <feGaussianBlur stdDeviation="7.5" />
      <feColorMatrix type="matrix" values="0 0 0 0 0.31 0 0 0 0 0.275 0 0 0 0 0.898 0 0 0 0.498 0" />
      <feBlend mode="normal" in2="BackgroundImageFix_1" result="Shadow_2" />
      <feBlend mode="normal" in="SourceGraphic" in2="Shadow_2" result="Shape_3" />
    </filter>
    <linearGradient id="gradient_3" gradientUnits="userSpaceOnUse" x1="160.9" y1="0" x2="-0" y2="191.753">
      <stop offset="0" stop-color="#818CF8" />
      <stop offset="1" stop-color="#3730A3" />
    </linearGradient>
    <filter color-interpolation-filters="sRGB" x="-158.697" y="-189.511" width="160.697" height="191.511" id="filter_4">
      <feFlood flood-opacity="0" result="BackgroundImageFix_1" />
      <feColorMatrix type="matrix" values="0 0 0 0 0 0 0 0 0 0 0 0 0 0 0 0 0 0 1 0" in="SourceAlpha" />
      <feOffset dx="0" dy="0" />
      <feGaussianBlur stdDeviation="7.5" />
      <feColorMatrix type="matrix" values="0 0 0 0 0.31 0 0 0 0 0.275 0 0 0 0 0.898 0 0 0 0.498 0" />
      <feBlend mode="normal" in2="BackgroundImageFix_1" result="Shadow_2" />
      <feBlend mode="normal" in="SourceGraphic" in2="Shadow_2" result="Shape_3" />
    </filter>
    <filter color-interpolation-filters="sRGB" x="-213" y="-210" width="215" height="212" id="filter_5">
      <feFlood flood-opacity="0" result="BackgroundImageFix_1" />
      <feColorMatrix type="matrix" values="0 0 0 0 0 0 0 0 0 0 0 0 0 0 0 0 0 0 1 0" in="SourceAlpha" />
      <feOffset dx="0" dy="0" />
      <feGaussianBlur stdDeviation="7.5" />
      <feColorMatrix type="matrix" values="0 0 0 0 0.961 0 0 0 0 0.62 0 0 0 0 0.043 0 0 0 0.498 0" />
      <feBlend mode="normal" in2="BackgroundImageFix_1" result="Shadow_2" />
      <feBlend mode="normal" in="SourceGraphic" in2="Shadow_2" result="Shape_3" />
    </filter>
  </defs>
  <g clip-path="url(#clip_path_1)">
    <rect width="512" height="512" fill="#FFFFFF" fill-rule="evenodd" />
    <path d="M24 0L311 0C346.351 0 375 28.649 375 64L375 416C375 429.257 364.257 440 351 440L24 440C10.7434 440 0 429.257 0 416L0 24C0 10.7434 10.7434 0 24 0L24 0Z" fill="#FFFFFF" stroke-width="18" stroke="#4F46E5" filter="url(#filter_2)" transform="translate(68 36)" />
    <path d="M0 0L51 0C86.351 0 115 28.649 115 64L115 115L24 115C10.7433 115 0 104.257 0 91L0 0L0 0Z" fill="#4F46E5" transform="translate(328 36)" />
    <path d="M12 0L153 0C159.628 0 165 5.37167 165 12L165 12C165 18.6283 159.628 24 153 24L12 24C5.37168 24 0 18.6283 0 12L0 12C0 5.37167 5.37168 0 12 0L12 0Z" fill="#C7D2FE" transform="translate(116 346)" />
    <path d="M12 0L203 0C209.628 0 215 5.37167 215 12L215 12C215 18.6283 209.628 24 203 24L12 24C5.37168 24 0 18.6283 0 12L0 12C0 5.37167 5.37168 0 12 0L12 0Z" fill="#C7D2FE" transform="translate(116 202)" />
    <path d="M12 0L153 0C159.628 0 165 5.37167 165 12L165 12C165 18.6283 159.628 24 153 24L12 24C5.37168 24 0 18.6283 0 12L0 12C0 5.37167 5.37168 0 12 0L12 0Z" fill="#C7D2FE" transform="translate(116 250)" />
    <path d="M12 0L203 0C209.628 0 215 5.37167 215 12L215 12C215 18.6283 209.628 24 203 24L12 24C5.37168 24 0 18.6283 0 12L0 12C0 5.37167 5.37168 0 12 0L12 0Z" fill="#C7D2FE" transform="translate(116 298)" />
    <path d="M33.7018 70C28.3866 70 23.8946 69.1296 20.2258 67.3889C16.5726 65.6324 13.6642 63.0688 11.5005 59.6982C9.35246 56.3276 7.83161 52.2765 6.93791 47.5449L0 47.5449L0 37.9315L6.06773 37.9315C6.00502 37.2194 5.97366 36.6655 5.97366 36.2699C5.97366 35.8743 5.97366 35.4233 5.97366 34.9169C5.97366 34.3947 5.97366 33.8409 5.97366 33.2553C5.97366 32.6698 6.00502 32.116 6.06773 31.5938L0 31.5938L0 21.9803L7.31421 21.9803C8.47444 17.1222 10.2854 13.0711 12.7469 9.82706C15.2242 6.58302 18.3208 4.13812 22.0367 2.49237C25.7683 0.830788 30.0486 0 34.8777 0C37.6999 0 40.1537 0.229454 42.239 0.68837C44.3242 1.13145 46.3939 1.74862 48.4478 2.53984L45.461 13.8148C43.9244 13.2926 42.3487 12.8575 40.7338 12.5093C39.1345 12.1454 37.1511 11.9634 34.7836 11.9634C32.2123 11.9634 30.0251 12.3353 28.222 13.079C26.4189 13.8228 24.9373 14.9463 23.777 16.4496C22.6325 17.9371 21.7388 19.7807 21.0959 21.9803L42.4741 21.9803L40.6397 31.5938L19.8495 31.5938C19.7868 32.3059 19.7554 32.9072 19.7554 33.3978C19.7554 33.8883 19.7554 34.3947 19.7554 34.9169C19.7554 35.4233 19.7554 35.8743 19.7554 36.2699C19.7554 36.6655 19.7868 37.2194 19.8495 37.9315L39.4873 37.9315L37.6529 47.5449L21.0959 47.5449C21.8642 50.1402 22.8441 52.1974 24.0358 53.7165C25.2273 55.2357 26.6698 56.3197 28.3631 56.9685C30.0721 57.6173 32.0163 57.9417 34.1957 57.9417C36.3123 57.9417 38.4603 57.7518 40.6397 57.372C42.8347 56.9764 45.022 56.3276 47.2013 55.4256L50 66.6056C48.2596 67.5076 46.0097 68.2989 43.2502 68.9793C40.4908 69.6598 37.3079 70 33.7018 70L33.7018 70Z" fill="#4F46E5" transform="translate(116 84)" />
    <path d="M0 229.813L192.836 0" fill="none" stroke-width="72" stroke="#FFFFFF" stroke-linecap="square" transform="translate(191.164 290)" />
    <path d="M108.336 2.08899L137.76 75.6558Q137.83 75.8294 137.963 75.961Q138.096 76.0926 138.27 76.1603L212.843 105.161Q212.875 105.174 212.905 105.188Q212.936 105.203 212.965 105.219Q212.994 105.236 213.022 105.255Q213.05 105.274 213.077 105.295Q213.103 105.316 213.128 105.339Q213.153 105.362 213.176 105.387Q213.199 105.411 213.22 105.438Q213.241 105.464 213.26 105.492Q213.279 105.52 213.296 105.549Q213.313 105.578 213.327 105.609Q213.342 105.639 213.355 105.67Q213.367 105.702 213.377 105.734Q213.387 105.766 213.394 105.799Q213.402 105.832 213.407 105.866Q213.412 105.899 213.415 105.933Q213.417 105.966 213.417 106Q213.417 106.034 213.415 106.067Q213.412 106.101 213.407 106.134Q213.402 106.168 213.394 106.201Q213.387 106.234 213.377 106.266Q213.367 106.298 213.355 106.33Q213.342 106.361 213.327 106.391Q213.313 106.422 213.296 106.451Q213.279 106.48 213.26 106.508Q213.241 106.536 213.22 106.562Q213.199 106.589 213.176 106.613Q213.153 106.638 213.128 106.661Q213.103 106.684 213.077 106.705Q213.05 106.726 213.022 106.745Q212.994 106.764 212.965 106.781Q212.936 106.797 212.905 106.812Q212.875 106.826 212.843 106.839L138.27 135.84Q138.096 135.907 137.963 136.039Q137.83 136.171 137.76 136.344L108.336 209.911Q108.323 209.942 108.308 209.972Q108.294 210.002 108.277 210.031Q108.26 210.06 108.241 210.088Q108.222 210.115 108.201 210.141Q108.18 210.167 108.157 210.192Q108.134 210.216 108.109 210.239Q108.085 210.262 108.059 210.282Q108.032 210.303 108.005 210.322Q107.977 210.341 107.948 210.357Q107.919 210.374 107.888 210.389Q107.858 210.403 107.827 210.415Q107.796 210.427 107.764 210.437Q107.732 210.447 107.699 210.454Q107.667 210.462 107.633 210.467Q107.6 210.472 107.567 210.474Q107.534 210.477 107.5 210.477Q107.467 210.477 107.433 210.474Q107.4 210.472 107.367 210.467Q107.333 210.462 107.301 210.454Q107.268 210.447 107.236 210.437Q107.204 210.427 107.173 210.415Q107.142 210.403 107.112 210.389Q107.081 210.374 107.052 210.357Q107.023 210.341 106.995 210.322Q106.968 210.303 106.941 210.282Q106.915 210.262 106.891 210.239Q106.866 210.216 106.843 210.192Q106.82 210.167 106.799 210.141Q106.778 210.115 106.759 210.088Q106.74 210.06 106.723 210.031Q106.706 210.002 106.692 209.972Q106.677 209.942 106.664 209.911L77.2396 136.344Q77.1701 136.171 77.0373 136.039Q76.9044 135.907 76.7302 135.84L2.15668 106.839Q2.12521 106.826 2.09475 106.812Q2.0643 106.797 2.03501 106.781Q2.00573 106.764 1.97779 106.745Q1.94985 106.726 1.92341 106.705Q1.89696 106.684 1.87217 106.661Q1.84737 106.638 1.82436 106.613Q1.80135 106.589 1.78025 106.562Q1.75916 106.536 1.7401 106.508Q1.72104 106.48 1.70412 106.451Q1.6872 106.422 1.67252 106.391Q1.65783 106.361 1.64547 106.33Q1.63311 106.298 1.62313 106.266Q1.61315 106.234 1.60562 106.201Q1.59809 106.168 1.59305 106.134Q1.588 106.101 1.58547 106.067Q1.58294 106.034 1.58294 106Q1.58294 105.966 1.58547 105.933Q1.588 105.899 1.59305 105.866Q1.59809 105.832 1.60562 105.799Q1.61315 105.766 1.62313 105.734Q1.63311 105.702 1.64547 105.67Q1.65783 105.639 1.67252 105.609Q1.6872 105.578 1.70412 105.549Q1.72104 105.52 1.7401 105.492Q1.75916 105.464 1.78025 105.438Q1.80135 105.411 1.82436 105.387Q1.84737 105.362 1.87217 105.339Q1.89696 105.316 1.92341 105.295Q1.94985 105.274 1.97779 105.255Q2.00573 105.236 2.03501 105.219Q2.0643 105.203 2.09475 105.188Q2.12521 105.174 2.15668 105.161L76.7302 76.1603Q76.9044 76.0925 77.0373 75.961Q77.1701 75.8294 77.2396 75.6558L106.664 2.08899Q106.677 2.0579 106.692 2.02781Q106.706 1.99773 106.723 1.96882Q106.74 1.93991 106.759 1.91234Q106.778 1.88477 106.799 1.85869Q106.82 1.83261 106.843 1.80816Q106.866 1.78372 106.891 1.76104Q106.915 1.73836 106.941 1.71757Q106.968 1.69679 106.995 1.67801Q107.023 1.65924 107.052 1.64258Q107.081 1.62591 107.112 1.61146Q107.142 1.597 107.173 1.58483Q107.204 1.57266 107.236 1.56284Q107.268 1.55302 107.301 1.54561Q107.333 1.53819 107.367 1.53323Q107.4 1.52826 107.433 1.52577Q107.467 1.52329 107.5 1.52329Q107.534 1.52329 107.567 1.52577Q107.6 1.52826 107.633 1.53323Q107.667 1.53819 107.699 1.54561Q107.732 1.55302 107.764 1.56284Q107.796 1.57266 107.827 1.58483Q107.858 1.597 107.888 1.61146Q107.919 1.62591 107.948 1.64258Q107.977 1.65924 108.005 1.67801Q108.032 1.69679 108.059 1.71757Q108.085 1.73836 108.109 1.76104Q108.134 1.78372 108.157 1.80816Q108.18 1.83261 108.201 1.85869Q108.222 1.88477 108.241 1.91234Q108.26 1.93991 108.277 1.96882Q108.294 1.99773 108.308 2.02781Q108.323 2.0579 108.336 2.08899Z" fill="#FFFFFF" fill-rule="evenodd" transform="translate(277 185)" />
    <path d="M178.736 79.905L153.036 15.6528C151.338 11.4081 148.674 7.89722 145.042 5.12024C140.578 1.70674 135.537 0 129.917 0C124.298 1.52588e-05 119.256 1.70676 114.792 5.12024C111.16 7.89726 108.496 11.4081 106.798 15.6528L81.0986 79.905L15.875 105.27C11.5867 106.938 8.03357 109.59 5.21573 113.228C1.73859 117.716 0 122.799 0 128.477C0 134.154 1.73856 139.237 5.2157 143.726C8.03354 147.363 11.5866 150.016 15.875 151.684L81.0986 177.048L106.798 241.301C108.496 245.545 111.16 249.056 114.792 251.833C119.256 255.247 124.298 256.953 129.917 256.953C135.537 256.953 140.578 255.247 145.042 251.833C148.674 249.056 151.339 245.545 153.036 241.301L178.736 177.048L243.959 151.683C248.247 150.016 251.801 147.363 254.618 143.726C258.096 139.237 259.834 134.154 259.834 128.477C259.834 122.799 258.096 117.716 254.618 113.228C251.801 109.59 248.247 106.938 243.959 105.27L178.736 79.905L178.736 79.905Z" fill="#FFFFFF" fill-rule="evenodd" transform="translate(254.583 162.523)" />
    <path d="M0 191.511L160.697 0" fill="none" stroke-width="24" stroke="url(#gradient_3)" stroke-linecap="round" stroke-linejoin="round" filter="url(#filter_4)" transform="translate(223.303 290.489)" />
    <path d="M107.5 0L137.906 76.0187L215 106L137.906 135.981L107.5 212L77.0944 135.981L0 106L77.0944 76.0187L107.5 0Z" fill="#FFA000" fill-rule="evenodd" filter="url(#filter_5)" transform="translate(277 185)" />
    <path d="M0 12C0 5.37259 5.37259 0 12 0C18.6274 0 24 5.37259 24 12C24 18.6274 18.6274 24 12 24C5.37259 24 0 18.6274 0 12Z" fill="#FFFFFF" fill-rule="evenodd" fill-opacity="0.5" transform="translate(347 254.489)" />
  </g>
</svg>